<svg version="1.2" baseProfile="tiny-ps" xmlns="http://www.w3.org/2000/svg" viewBox="0 0 58 42" width="58" height="42">
	<title>Vector Smart Object-ai</title>
	<style>
		tspan { white-space:pre }
		.s0 { fill: #000000 } 
	</style>
	<g id="Layer 1">
		<path id="&lt;Path&gt;" class="s0" d="m14.28 8.05l15.72 15.72l15.92-15.92l0 0c0.54-0.52 1.27-0.84 2.08-0.84c1.66 0 3 1.34 3 3c0 0.81-0.32 1.54-0.84 2.08l0 0l-18 18l0 0c-0.55 0.57-1.31 0.92-2.16 0.92c0 0-0.01 0-0.01 0c0 0 0 0-0.01 0c-0.85 0-1.61-0.35-2.16-0.92l0 0l-18-18l0.01-0.01c-0.52-0.54-0.83-1.27-0.83-2.08c0-1.66 1.34-3 3-3c0.91 0 1.72 0.41 2.27 1.05z" />
	</g>
</svg>