<svg version="1.2" baseProfile="tiny-ps" xmlns="http://www.w3.org/2000/svg" viewBox="0 0 375 361" width="375" height="361">
	<title>Inteligentny obiekt wektorowy-ai</title>
	<defs>
		<linearGradient id="grd1" gradientUnits="userSpaceOnUse"  x1="-50.3" y1="142.8" x2="144.1" y2="-20.3">
			<stop offset="0" stop-color="#5992ce"  />
			<stop offset="1" stop-color="#1e4979"  />
		</linearGradient>
		<linearGradient id="grd2" gradientUnits="userSpaceOnUse"  x1="160.1" y1="-23.2" x2="391.7" y2="56.5">
			<stop offset="0" stop-color="#5992ce"  />
			<stop offset="1" stop-color="#1e4979"  />
		</linearGradient>
		<linearGradient id="grd3" gradientUnits="userSpaceOnUse"  x1="235" y1="-29.6" x2="385.4" y2="193.4">
			<stop offset="0" stop-color="#5992ce"  />
			<stop offset="1" stop-color="#1e4979"  />
		</linearGradient>
	</defs>
	<style>
		tspan { white-space:pre }
		.s0 { fill: #1c344c } 
		.s1 { fill: url(#grd1) } 
		.s2 { fill: url(#grd2) } 
		.s3 { fill: url(#grd3) } 
		.t4 { font-size: 100px;fill: #ffffff;font-weight: 500;font-family: "Roboto-Medium", "Roboto" } 
	</style>
	<g id="Warstwa 1">
		<g id="&lt;Group&gt;">
			<path id="&lt;Compound Path&gt;" fill-rule="evenodd" class="s0" d="m341.25 176.29c0 86.82-70.38 157.21-157.21 157.21c-86.82 0-157.21-70.38-157.21-157.21c0-86.82 70.38-157.21 157.21-157.21c86.82 0 157.21 70.38 157.21 157.21zm-80.04 0c0-42.62-34.55-77.17-77.17-77.17c-42.62 0-77.17 34.55-77.17 77.17c0 42.62 34.55 77.17 77.17 77.17c42.62 0 77.17-34.55 77.17-77.17z" />
			<path id="&lt;Path&gt;" class="s1" d="m261.21 176.57h-0.04c0-42.8-34.7-77.5-77.5-77.5c-42.8 0-77.5 34.7-77.5 77.5c0 73.16 49.89 134.66 117.5 152.36c-12.77 3.34-26.18 5.14-40 5.14c-86.98 0-157.5-70.52-157.5-157.5c0-73.13 49.85-134.58 117.42-152.31l0.15-0.04c67.61 17.7 117.47 79.19 117.47 152.35z" />
			<path id="&lt;Path&gt;" class="s2" d="m106.21 176.58h0.04c0 42.8 34.7 77.5 77.5 77.5c42.8 0 77.5-34.7 77.5-77.5c0-73.16-49.89-134.66-117.5-152.36c12.77-3.34 26.18-5.14 40-5.14c86.98 0 157.5 70.52 157.5 157.5c0 73.13-49.85 134.58-117.42 152.31l-0.15 0.04c-67.61-17.7-117.47-79.19-117.47-152.35z" />
			<path id="&lt;Path&gt;" class="s3" d="m129.03 231.41l0.02-0.02c30.27 30.27 79.34 30.27 109.6 0c30.27-30.27 30.27-79.34 0-109.6c-51.73-51.73-130.49-59.94-190.82-24.65c6.67-11.4 14.88-22.14 24.65-31.92c61.51-61.51 161.23-61.51 222.74 0c51.71 51.71 59.91 130.42 24.67 190.73l-0.07 0.13c-60.33 35.29-139.06 27.07-190.79-24.67z" />
		</g>
		<text id="Merkury
" style="transform: matrix(2,0,0,2,421,241)" >
			<tspan x="0" y="0" class="t4">Merkury
</tspan>
		</text>
	</g>
</svg>