<svg version="1.2" baseProfile="tiny-ps" xmlns="http://www.w3.org/2000/svg" viewBox="0 0 104 127" width="104" height="127">
	<title>padlock50-eps</title>
	<defs>
		<clipPath clipPathUnits="userSpaceOnUse" id="cp1">
			<path d="m0 0h104v127h-104z" />
		</clipPath>
	</defs>
	<style>
		tspan { white-space:pre }
		.s0 { fill: #5583ff } 
	</style>
	<g id="Page 1" clip-path="url(#cp1)">
		<path id="Path 1" fill-rule="evenodd" class="s0" d="m103.35 58.28v62.42c0 2.42-2.03 4.3-4.3 4.3h-94.76c-2.43 0-4.3-1.87-4.3-4.3v-62.42c0-2.43 1.87-4.3 4.3-4.3h15.39v-20.31c0-9.46 3.04-17.27 9.07-23.44c6.01-6.18 13.67-9.22 22.96-9.22c9.22 0 16.8 3.04 22.81 9.22c6.01 6.17 8.99 13.98 8.99 23.44v20.31h15.54c2.27 0 4.3 1.87 4.3 4.3zm-74.99-4.3h46.49v-20.31c0-7.03-2.21-12.79-6.49-17.27c-4.32-4.51-9.85-6.8-16.64-6.8c-6.88 0-12.5 2.26-16.87 6.8c-4.31 4.45-6.49 10.24-6.49 17.27v20.31zm66.33 8.59h-86.01v53.74h86.01v-53.74zm-53.75 18.28c0-2.58 1.12-4.82 3.29-6.71c2.2-1.94 4.68-2.9 7.49-2.9c2.74 0 5.12 0.98 7.27 2.9c2.15 1.91 3.28 4.13 3.28 6.71c0 3.75-2.58 7.11-6.25 8.75v17.97c0 2.43-1.87 4.46-4.3 4.46c-2.42 0-4.37-2.04-4.37-4.46v-17.97c-3.68-1.64-6.41-5.08-6.41-8.75z" />
	</g>
</svg>