<svg version="1.2" baseProfile="tiny-ps" xmlns="http://www.w3.org/2000/svg" viewBox="0 0 7 33" width="7" height="33">
	<title>Elipsa 3 kopia 2</title>
	<style>
		tspan { white-space:pre }
		.s0 { fill: #0e1a35 } 
	</style>
	<path id="Elipsa 3" class="s0" d="m3.5 0c1.93 0 3.5 1.57 3.5 3.5c0 1.93-1.57 3.5-3.5 3.5c-1.93 0-3.5-1.57-3.5-3.5c0-1.93 1.57-3.5 3.5-3.5z" />
	<path id="Elipsa 3 kopia" class="s0" d="m3.5 13c1.93 0 3.5 1.57 3.5 3.5c0 1.93-1.57 3.5-3.5 3.5c-1.93 0-3.5-1.57-3.5-3.5c0-1.93 1.57-3.5 3.5-3.5z" />
	<path id="Elipsa 3 kopia 2" class="s0" d="m3.5 26c1.93 0 3.5 1.57 3.5 3.5c0 1.93-1.57 3.5-3.5 3.5c-1.93 0-3.5-1.57-3.5-3.5c0-1.93 1.57-3.5 3.5-3.5z" />
</svg>