<svg version="1.2" baseProfile="tiny-ps" xmlns="http://www.w3.org/2000/svg" viewBox="0 0 36 52" width="36" height="52">
	<title>Vector Smart Object-ai</title>
	<style>
		tspan { white-space:pre }
		.s0 { fill: #fff } 
	</style>
	<g id="Layer 1">
		<path id="&lt;Path&gt;" class="s0" d="m9.2 42.35l16.23-15.19l-15.39-16.44l0 0c-0.5-0.56-0.8-1.3-0.77-2.11c0.05-1.66 1.44-2.95 3.1-2.9c0.81 0.03 1.53 0.37 2.05 0.91l0 0l17.39 18.59l0 0c0.55 0.56 0.87 1.34 0.85 2.19c0 0 0 0.01 0 0.01c0 0 0 0 0 0.01c-0.03 0.85-0.41 1.6-0.99 2.13l0 0l-18.59 17.39l-0.01-0.01c-0.56 0.5-1.3 0.79-2.1 0.76c-1.66-0.05-2.95-1.44-2.9-3.1c0.03-0.91 0.46-1.71 1.12-2.24z" />
	</g>
</svg>