<svg version="1.2" baseProfile="tiny-ps" xmlns="http://www.w3.org/2000/svg" viewBox="0 0 1448 312" width="1448" height="312">
	<title>Inteligentny obiekt wektorowy-ai</title>
	<style>
		tspan { white-space:pre }
		.s0 { fill: none;stroke: #5384ff;stroke-linecap:round;stroke-linejoin:round;stroke-width: 8 } 
	</style>
	<g id="Warstwa 1">
		<path id="&lt;Path&gt;" class="s0" d="m862.47 157.99l7.53 7.36l-7.76 13.82l-9.97-3.12c-2.93 2.61-6.34 4.5-10.08 5.84l-2.43 10.11h-15.52l-2.43-10.11c-3.74-1.34-7.14-3.07-10.08-5.69l-9.97 3.04l-7.76-13.86l7.53-7.37c-0.36-1.95-0.57-3.95-0.57-6c0-2.06 0.21-4.05 0.57-6l-7.53-7.36l7.76-13.82l9.97 3.12c2.93-2.61 6.34-4.5 10.08-5.84l2.43-10.11h15.52l2.43 10.11c3.74 1.34 7.14 3.07 10.08 5.69l9.97-3.04l7.76 13.86l-7.53 7.38c0.36 1.95 0.57 3.95 0.57 6.01c0 2.06-0.21 4.04-0.57 5.99z" />
		<path id="&lt;Path&gt;" class="s0" d="m844 152c0 6.63-5.37 12-12 12c-6.63 0-12-5.37-12-12c0-6.63 5.37-12 12-12c6.63 0 12 5.37 12 12z" />
	</g>
</svg>