<svg version="1.2" baseProfile="tiny-ps" xmlns="http://www.w3.org/2000/svg" viewBox="0 0 50 56" width="50" height="56">
	<title>user146 (1)-eps</title>
	<defs>
		<clipPath clipPathUnits="userSpaceOnUse" id="cp1">
			<path d="m0 0h50v56h-50z" />
		</clipPath>
	</defs>
	<style>
		tspan { white-space:pre }
		.s0 { fill: #5583ff } 
	</style>
	<g id="Page 1" clip-path="url(#cp1)">
		<path id="Path 1" fill-rule="evenodd" class="s0" d="m49.88 54h-3.34c-0.64-8.45-6.13-15.52-13.68-18.49c-2.4 1.15-5.08 1.82-7.92 1.82c-2.84 0-5.53-0.67-7.93-1.82c-7.55 2.97-13.04 10.04-13.68 18.49h-3.34c0.59-9.02 5.97-16.71 13.61-20.61c-4.26-3.35-7.01-8.55-7.01-14.4c0-10.13 8.2-18.34 18.34-18.34c10.12 0 18.33 8.21 18.33 18.34c0 5.84-2.74 11.04-7.01 14.4c7.64 3.9 13.02 11.59 13.61 20.61zm-9.94-35c0-8.29-6.71-15-15-15c-8.29 0-15.01 6.71-15.01 15c0 8.28 6.72 15 15.01 15c8.28 0 15-6.71 15-15z" />
	</g>
</svg>